<svg width="22" height="23" viewBox="0 0 22 23" fill="none" xmlns="http://www.w3.org/2000/svg">
<path d="M21.9993 12.3186C22.0014 11.8661 21.9302 10.1589 21.8758 9.67066C21.25 4.06701 16.702 0 11.0622 0C5.18797 0 0.428475 4.52638 0.105582 10.5282C0.0987052 10.6592 0.0505668 11.5886 0.0471284 12.1419L0.0454091 12.4496C0.0171923 12.5768 0 12.7082 0 12.8437V17.4567C0 18.4642 0.819384 19.2836 1.82685 19.2836H3.68121C4.68868 19.2836 5.50839 18.4642 5.50839 17.4567V12.844C5.50839 11.8365 4.68831 11.0172 3.68119 11.0172H1.82651C1.70246 11.0172 1.57874 11.0297 1.45722 11.0546C1.46753 10.8315 1.47682 10.6554 1.47925 10.6021C1.76223 5.34164 5.93067 1.37538 11.0622 1.37538C15.9895 1.37538 19.962 4.92868 20.5087 9.82367C20.5317 10.0279 20.5613 10.5471 20.585 11.0684C20.4519 11.0374 20.3147 11.0171 20.1724 11.0171H18.3397C17.3322 11.0171 16.5128 11.8365 16.5128 12.844V17.4357C16.5128 18.1313 16.9083 18.7306 17.4818 19.0387L13.0669 20.772V20.6599C13.0669 20.2803 12.7588 19.9723 12.3792 19.9723H10.3161C9.93647 19.9723 9.62841 20.2803 9.62841 20.6599V21.3476C9.62841 21.7272 9.93647 22.0353 10.3161 22.0353H12.3792C12.385 22.0353 12.3902 22.0336 12.396 22.0336L13.6287 22.0288L20.7109 19.2485C20.8038 19.21 20.8825 19.1525 20.9472 19.0838C21.5671 18.7911 22 18.1653 22 17.4357V12.844C22 12.7319 21.9862 12.6229 21.9666 12.5166C21.9856 12.4533 21.999 12.3877 21.9993 12.3186L21.9993 12.3186ZM1.82653 12.3925H3.68093C3.93022 12.3925 4.13272 12.5947 4.13272 12.844V17.457C4.13272 17.7063 3.92986 17.9085 3.68089 17.9085H1.82655C1.57726 17.9085 1.3751 17.7063 1.3751 17.457V12.844C1.37543 12.5947 1.57759 12.3925 1.82653 12.3925ZM17.8879 12.844C17.8879 12.5947 18.0902 12.3925 18.3394 12.3925H20.1721C20.4214 12.3925 20.6239 12.5947 20.6239 12.844V17.4357C20.6239 17.685 20.421 17.8872 20.1721 17.8872H18.3394C18.0901 17.8872 17.8879 17.685 17.8879 17.4357V12.844Z" fill="#0B0E0B"/>
</svg>
